<svg width="24" height="24" viewBox="0 0 24 24" fill="none" xmlns="http://www.w3.org/2000/svg">
<g clip-path="url(#clip0_601_1070)">
<path d="M14.7751 12.9469L15.094 10.9889H13.1804V9.61829C13.1804 9.07005 13.3798 8.63929 14.2568 8.63929H15.1738V6.83792C14.6555 6.75959 14.0974 6.68127 13.579 6.68127C11.9446 6.68127 10.7883 7.66028 10.7883 9.42249V10.9889H8.99438V12.9469H10.7883V18.0377C11.5857 18.0377 12.3831 18.0377 13.1804 18.0377V12.9469H14.7751Z" fill="#2E2C28"/>
<path d="M23.2561 11.981C23.2561 17.8842 18.3391 22.8374 12.0835 22.8374C5.82792 22.8374 0.910889 17.8842 0.910889 11.981C0.910889 6.07781 5.82792 1.12451 12.0835 1.12451C18.3391 1.12451 23.2561 6.07781 23.2561 11.981Z" stroke="#2E2C28"/>
</g>
<defs>
<clipPath id="clip0_601_1070">
<rect width="24" height="24" fill="white"/>
</clipPath>
</defs>
</svg>
