<svg width="24" height="24" viewBox="0 0 24 24" fill="none" xmlns="http://www.w3.org/2000/svg">
<g clip-path="url(#clip0_601_1056)">
<path fill-rule="evenodd" clip-rule="evenodd" d="M7.39736 7.43848C6.48323 7.43848 5.74219 8.33391 5.74219 9.43848V13.7666C5.74219 14.8712 6.48323 15.7666 7.39736 15.7666H15.6734C16.5876 15.7666 17.3286 14.8712 17.3286 13.7666V9.43848C17.3286 8.33391 16.5876 7.43848 15.6734 7.43848H7.39736ZM10.1796 13.8974L14.2348 11.6026L10.1796 9.30771V13.8974Z" fill="#2E2C28"/>
<path d="M23.0909 11.981C23.0909 17.8842 18.1738 22.8374 11.9182 22.8374C5.66264 22.8374 0.745605 17.8842 0.745605 11.981C0.745605 6.07781 5.66264 1.12451 11.9182 1.12451C18.1738 1.12451 23.0909 6.07781 23.0909 11.981Z" stroke="#2E2C28"/>
</g>
<defs>
<clipPath id="clip0_601_1056">
<rect width="24" height="24" fill="white"/>
</clipPath>
</defs>
</svg>
