<svg width="10" height="10" viewBox="0 0 10 10" fill="none" xmlns="http://www.w3.org/2000/svg">
<g clip-path="url(#clip0_601_1073)">
<path d="M4.74137 9.75C2.18934 9.75 0.192139 7.57701 0.192139 5C0.192139 2.42299 2.18934 0.25 4.74137 0.25C7.2934 0.25 9.29057 2.42299 9.29057 5C9.29057 7.57701 7.2934 9.75 4.74137 9.75Z" stroke="#2E2C28" stroke-width="0.5"/>
<path d="M8.42994 2.22229C7.20064 3.06076 4.00449 4.23462 1.0542 2.22229" stroke="#2E2C28" stroke-width="0.5"/>
<path d="M1.05347 7.77774C2.28276 6.93927 5.47891 5.76541 8.42917 7.77774" stroke="#2E2C28" stroke-width="0.5"/>
<path d="M4.74268 0.55542C6.10575 2.0369 8.01404 5.88875 4.74268 9.44431" stroke="#2E2C28" stroke-width="0.5"/>
<path d="M4.74282 9.44431C3.37975 7.96282 1.47144 4.11097 4.74282 0.55542" stroke="#2E2C28" stroke-width="0.5"/>
<path d="M0.262207 5H8.95504" stroke="#2E2C28" stroke-width="0.5"/>
</g>
<defs>
<clipPath id="clip0_601_1073">
<rect width="10" height="10" fill="white"/>
</clipPath>
</defs>
</svg>
