<svg width="129" height="15" viewBox="0 0 129 15" fill="none" xmlns="http://www.w3.org/2000/svg">
<path fill-rule="evenodd" clip-rule="evenodd" d="M9.22106 0.862113C9.40818 0.501144 9.92499 0.502556 10.1101 0.864541L12.159 4.87049C12.2365 5.02202 12.3857 5.12372 12.5551 5.1404L17.3194 5.60962C17.7618 5.65318 17.9316 6.20913 17.5891 6.49247L14.1353 9.34971C13.9902 9.46979 13.9249 9.66125 13.9663 9.84502L14.8991 13.979C14.9916 14.389 14.5676 14.7233 14.1905 14.5376L9.81347 12.3823C9.67332 12.3132 9.50897 12.3137 9.3692 12.3835L5.06942 14.5306C4.69274 14.7187 4.26643 14.3855 4.35802 13.9745L5.293 9.77909C5.33421 9.59414 5.26733 9.40177 5.12026 9.28228L1.67567 6.48355C1.33081 6.20335 1.49546 5.64614 1.93724 5.59839L6.78585 5.07428C6.95243 5.05628 7.09892 4.95604 7.17603 4.80728L9.22106 0.862113Z" fill="#D12420"/>
<path fill-rule="evenodd" clip-rule="evenodd" d="M36.683 0.862113C36.8701 0.501144 37.3869 0.502556 37.572 0.864541L39.6209 4.87049C39.6984 5.02202 39.8477 5.12372 40.017 5.1404L44.7814 5.60962C45.2237 5.65318 45.3936 6.20913 45.0511 6.49247L41.5973 9.34971C41.4521 9.46979 41.3868 9.66125 41.4282 9.84502L42.361 13.979C42.4535 14.389 42.0295 14.7233 41.6524 14.5376L37.2754 12.3823C37.1352 12.3132 36.9709 12.3137 36.8311 12.3835L32.5313 14.5306C32.1547 14.7187 31.7283 14.3855 31.8199 13.9745L32.7549 9.77909C32.7961 9.59414 32.7292 9.40177 32.5822 9.28228L29.1376 6.48355C28.7927 6.20335 28.9574 5.64614 29.3992 5.59839L34.2478 5.07428C34.4143 5.05628 34.5608 4.95604 34.6379 4.80728L36.683 0.862113Z" fill="#D12420"/>
<path fill-rule="evenodd" clip-rule="evenodd" d="M64.1417 0.862113C64.3288 0.501144 64.8456 0.502556 65.0308 0.864541L67.0796 4.87049C67.1571 5.02202 67.3064 5.12372 67.4758 5.1404L72.2401 5.60962C72.6825 5.65318 72.8523 6.20913 72.5098 6.49247L69.056 9.34971C68.9108 9.46979 68.8455 9.66125 68.887 9.84502L69.8198 13.979C69.9123 14.389 69.4883 14.7233 69.1111 14.5376L64.7341 12.3823C64.594 12.3132 64.4296 12.3137 64.2899 12.3835L59.9901 14.5306C59.6134 14.7187 59.1871 14.3855 59.2787 13.9745L60.2137 9.77909C60.2549 9.59414 60.188 9.40177 60.0409 9.28228L56.5963 6.48355C56.2515 6.20335 56.4161 5.64614 56.8579 5.59839L61.7065 5.07428C61.8731 5.05628 62.0196 4.95604 62.0967 4.80728L64.1417 0.862113Z" fill="#D12420"/>
<path fill-rule="evenodd" clip-rule="evenodd" d="M91.6075 0.862113C91.7947 0.501144 92.3115 0.502556 92.4966 0.864541L94.5455 4.87049C94.623 5.02202 94.7722 5.12372 94.9416 5.1404L99.7059 5.60962C100.148 5.65318 100.318 6.20913 99.9756 6.49247L96.5218 9.34971C96.3767 9.46979 96.3113 9.66125 96.3528 9.84502L97.2856 13.979C97.3781 14.389 96.9541 14.7233 96.577 14.5376L92.1999 12.3823C92.0598 12.3132 91.8954 12.3137 91.7557 12.3835L87.4559 14.5306C87.0792 14.7187 86.6529 14.3855 86.7445 13.9745L87.6795 9.77909C87.7207 9.59414 87.6538 9.40177 87.5067 9.28228L84.0621 6.48355C83.7173 6.20335 83.8819 5.64614 84.3237 5.59839L89.1723 5.07428C89.3389 5.05628 89.4854 4.95604 89.5625 4.80728L91.6075 0.862113Z" fill="#D12420"/>
<path fill-rule="evenodd" clip-rule="evenodd" d="M119.067 0.862113C119.254 0.501144 119.77 0.502556 119.956 0.864541L122.004 4.87049C122.082 5.02202 122.231 5.12372 122.401 5.1404L127.165 5.60962C127.607 5.65318 127.777 6.20913 127.435 6.49247L123.981 9.34971C123.836 9.46979 123.77 9.66125 123.812 9.84502L124.745 13.979C124.837 14.389 124.413 14.7233 124.036 14.5376L119.659 12.3823C119.519 12.3132 119.354 12.3137 119.215 12.3835L114.915 14.5306C114.538 14.7187 114.112 14.3855 114.203 13.9745L115.138 9.77909C115.18 9.59414 115.113 9.40177 114.966 9.28228L111.521 6.48355C111.176 6.20335 111.341 5.64614 111.783 5.59839L116.631 5.07428C116.798 5.05628 116.944 4.95604 117.021 4.80728L119.067 0.862113Z" fill="#D12420"/>
</svg>
