<svg width="24" height="24" viewBox="0 0 24 24" fill="none" xmlns="http://www.w3.org/2000/svg">
<g clip-path="url(#clip0_601_1062)">
<path d="M8.92549 8.4994C9.65012 8.4994 10.2375 7.92292 10.2375 7.2118C10.2375 6.50067 9.65012 5.92419 8.92549 5.92419C8.20092 5.92419 7.61353 6.50067 7.61353 7.2118C7.61353 7.92292 8.20092 8.4994 8.92549 8.4994Z" fill="#2E2C28"/>
<path d="M11.4392 9.45097H13.6136V10.4286C13.6136 10.4286 14.2037 9.27039 15.8091 9.27039C17.2413 9.27039 18.4276 9.96277 18.4276 12.0732V16.5236H16.1743V12.6125C16.1743 11.3675 15.497 11.2306 14.9809 11.2306C13.91 11.2306 13.7266 12.1373 13.7266 12.7749V16.5236H11.4392V9.45097Z" fill="#2E2C28"/>
<path d="M7.78174 9.45093H10.0691V16.5235H7.78174V9.45093Z" fill="#2E2C28"/>
<path d="M23.4209 11.981C23.4209 17.8842 18.5039 22.8374 12.2483 22.8374C5.99272 22.8374 1.07568 17.8842 1.07568 11.981C1.07568 6.07781 5.99272 1.12451 12.2483 1.12451C18.5039 1.12451 23.4209 6.07781 23.4209 11.981Z" stroke="#2E2C28"/>
</g>
<defs>
<clipPath id="clip0_601_1062">
<rect width="24" height="24" fill="white"/>
</clipPath>
</defs>
</svg>
