<svg width="24" height="24" viewBox="0 0 24 24" fill="none" xmlns="http://www.w3.org/2000/svg">
<g clip-path="url(#clip0_601_1067)">
<path fill-rule="evenodd" clip-rule="evenodd" d="M16.1306 10.2682C16.1343 10.3598 16.1356 10.4513 16.1356 10.5429C16.1356 13.3189 14.0635 16.5237 10.2745 16.5237C9.11059 16.5237 8.02833 16.1741 7.11646 15.5789C7.27764 15.5955 7.44135 15.6081 7.60757 15.6081C8.57258 15.6081 9.46149 15.2709 10.1665 14.7048C9.2651 14.6924 8.50397 14.0806 8.24144 13.2482C8.3675 13.2731 8.49727 13.2857 8.63001 13.2857C8.81713 13.2857 8.99878 13.2607 9.17299 13.2108C8.22972 13.0193 7.51922 12.1703 7.51922 11.1506C7.51922 11.1381 7.51922 11.134 7.51922 11.1256C7.79723 11.2796 8.11542 11.3753 8.45332 11.3878C7.8998 11.009 7.53597 10.364 7.53597 9.63558C7.53597 9.25268 7.63728 8.89057 7.81564 8.57842C8.83136 9.85198 10.3499 10.6886 12.0618 10.776C12.0267 10.622 12.0087 10.4597 12.0087 10.2974C12.0087 9.13618 12.9311 8.19556 14.069 8.19556C14.6615 8.19556 15.1965 8.44947 15.5721 8.85734C16.0422 8.76578 16.4826 8.59099 16.8813 8.3496C16.7268 8.84071 16.4006 9.25266 15.9744 9.5107C16.3914 9.46075 16.7892 9.34847 17.158 9.18199C16.8813 9.60235 16.533 9.9727 16.1306 10.2682Z" fill="#2E2C28"/>
<path d="M22.9238 11.981C22.9238 17.8842 18.0068 22.8374 11.7513 22.8374C5.49564 22.8374 0.578613 17.8842 0.578613 11.981C0.578613 6.07781 5.49564 1.12451 11.7513 1.12451C18.0068 1.12451 22.9238 6.07781 22.9238 11.981Z" stroke="#2E2C28"/>
</g>
<defs>
<clipPath id="clip0_601_1067">
<rect width="24" height="24" fill="white"/>
</clipPath>
</defs>
</svg>
