<svg width="24" height="24" viewBox="0 0 24 24" fill="none" xmlns="http://www.w3.org/2000/svg">
<g clip-path="url(#clip0_601_1059)">
<path d="M11.9993 5.92419C10.2612 5.92419 10.0431 5.93139 9.36034 5.96079C8.679 5.99031 8.2139 6.0924 7.80696 6.24218C7.38602 6.39688 7.02894 6.60382 6.6732 6.9406C6.31718 7.27725 6.09851 7.61517 5.9345 8.01341C5.77584 8.39864 5.66783 8.83889 5.63717 9.48344C5.60663 10.1295 5.59863 10.3361 5.59863 11.981C5.59863 13.6259 5.60636 13.8317 5.6373 14.4778C5.66864 15.1226 5.77651 15.5627 5.93464 15.9478C6.09824 16.3461 6.31692 16.6841 6.6728 17.0207C7.02841 17.3576 7.38548 17.5651 7.80616 17.7198C8.21337 17.8696 8.67857 17.9716 9.35983 18.0012C10.0425 18.0306 10.2605 18.0378 11.9985 18.0378C13.7368 18.0378 13.9544 18.0306 14.637 18.0012C15.3183 17.9716 15.784 17.8696 16.1912 17.7198C16.612 17.5651 16.9685 17.3576 17.3241 17.0207C17.6802 16.6841 17.8989 16.3462 18.0628 15.9479C18.2202 15.5627 18.3282 15.1224 18.3602 14.4779C18.3909 13.8318 18.3988 13.6259 18.3988 11.981C18.3988 10.3361 18.3909 10.1296 18.3602 9.48356C18.3282 8.83877 18.2202 8.39864 18.0628 8.01353C17.8989 7.61517 17.6802 7.27725 17.3241 6.9406C16.9682 6.60369 16.6121 6.39675 16.1908 6.24218C15.7828 6.0924 15.3174 5.99031 14.6361 5.96079C13.9534 5.93139 13.7361 5.92419 11.9973 5.92419H11.9993ZM11.4252 7.01568C11.5956 7.01542 11.7857 7.01568 11.9993 7.01568C13.7082 7.01568 13.9107 7.02148 14.5856 7.0505C15.2096 7.07751 15.5482 7.17618 15.7738 7.25908C16.0725 7.36886 16.2855 7.50009 16.5093 7.71208C16.7333 7.92407 16.872 8.12596 16.9883 8.40861C17.0759 8.62186 17.1803 8.94236 17.2087 9.5329C17.2394 10.1714 17.2461 10.3632 17.2461 11.9796C17.2461 13.596 17.2394 13.7878 17.2087 14.4263C17.1801 15.0168 17.0759 15.3373 16.9883 15.5506C16.8723 15.8332 16.7333 16.0345 16.5093 16.2463C16.2854 16.4583 16.0726 16.5896 15.7738 16.6993C15.5485 16.7826 15.2096 16.881 14.5856 16.908C13.9108 16.9371 13.7082 16.9434 11.9993 16.9434C10.2903 16.9434 10.0878 16.9371 9.41314 16.908C8.78914 16.8808 8.45044 16.7821 8.2247 16.6992C7.92603 16.5894 7.71269 16.4582 7.48868 16.2462C7.26468 16.0342 7.12601 15.8328 7.00974 15.5501C6.92214 15.3368 6.81773 15.0163 6.78933 14.4258C6.75866 13.7873 6.75253 13.5955 6.75253 11.9781C6.75253 10.3607 6.75866 10.1699 6.78933 9.53139C6.81787 8.94085 6.92214 8.62035 7.00974 8.40684C7.12574 8.12419 7.26468 7.9223 7.48868 7.71031C7.71269 7.49833 7.92603 7.3671 8.2247 7.25706C8.45031 7.17378 8.78914 7.07536 9.41314 7.04823C10.0035 7.023 10.2324 7.01542 11.4252 7.01416V7.01568ZM15.4157 8.02135C14.9917 8.02135 14.6477 8.34653 14.6477 8.74792C14.6477 9.14918 14.9917 9.47473 15.4157 9.47473C15.8397 9.47473 16.1837 9.14918 16.1837 8.74792C16.1837 8.34665 15.8397 8.02135 15.4157 8.02135ZM11.9993 8.87057C10.1842 8.87057 8.7126 10.2632 8.7126 11.981C8.7126 13.6987 10.1842 15.0908 11.9993 15.0908C13.8145 15.0908 15.2856 13.6987 15.2856 11.981C15.2856 10.2632 13.8144 8.87057 11.9993 8.87057ZM11.9993 9.96205C13.1775 9.96205 14.1327 10.8659 14.1327 11.981C14.1327 13.0959 13.1775 13.9999 11.9993 13.9999C10.8211 13.9999 9.86597 13.0959 9.86597 11.981C9.86597 10.8659 10.8211 9.96205 11.9993 9.96205Z" fill="#2E2C28"/>
<path d="M23.5715 11.981C23.5715 17.8842 18.4789 22.8374 11.9999 22.8374C5.52086 22.8374 0.428223 17.8842 0.428223 11.981C0.428223 6.07781 5.52086 1.12451 11.9999 1.12451C18.4789 1.12451 23.5715 6.07781 23.5715 11.981Z" stroke="#2E2C28"/>
</g>
<defs>
<clipPath id="clip0_601_1059">
<rect width="24" height="24" fill="white"/>
</clipPath>
</defs>
</svg>
