<svg width="129" height="15" viewBox="0 0 129 15" fill="none" xmlns="http://www.w3.org/2000/svg">
<path fill-rule="evenodd" clip-rule="evenodd" d="M9.37756 0.862113C9.56467 0.501144 10.0815 0.502556 10.2666 0.864541L12.3155 4.87049C12.393 5.02202 12.5422 5.12372 12.7116 5.1404L17.4759 5.60962C17.9183 5.65318 18.0881 6.20913 17.7456 6.49247L14.2918 9.34971C14.1467 9.46979 14.0813 9.66125 14.1228 9.84502L15.0556 13.979C15.1481 14.389 14.7241 14.7233 14.347 14.5376L9.96996 12.3823C9.82981 12.3132 9.66546 12.3137 9.5257 12.3835L5.22592 14.5306C4.84923 14.7187 4.42293 14.3855 4.51451 13.9745L5.44949 9.77909C5.49071 9.59414 5.42383 9.40177 5.27676 9.28228L1.83217 6.48355C1.4873 6.20335 1.65196 5.64614 2.09373 5.59839L6.94235 5.07428C7.10893 5.05628 7.25541 4.95604 7.33252 4.80728L9.37756 0.862113Z" fill="#D12420"/>
<path fill-rule="evenodd" clip-rule="evenodd" d="M36.8361 0.862113C37.0232 0.501144 37.54 0.502556 37.7251 0.864541L39.774 4.87049C39.8515 5.02202 40.0007 5.12372 40.1701 5.1404L44.9344 5.60962C45.3768 5.65318 45.5466 6.20913 45.2041 6.49247L41.7503 9.34971C41.6052 9.46979 41.5398 9.66125 41.5813 9.84502L42.5141 13.979C42.6066 14.389 42.1826 14.7233 41.8055 14.5376L37.4285 12.3823C37.2883 12.3132 37.124 12.3137 36.9842 12.3835L32.6844 14.5306C32.3077 14.7187 31.8814 14.3855 31.973 13.9745L32.908 9.77909C32.9492 9.59414 32.8823 9.40177 32.7353 9.28228L29.2907 6.48355C28.9458 6.20335 29.1105 5.64614 29.5522 5.59839L34.4008 5.07428C34.5674 5.05628 34.7139 4.95604 34.791 4.80728L36.8361 0.862113Z" fill="#D12420"/>
<path fill-rule="evenodd" clip-rule="evenodd" d="M64.2936 0.862113C64.4807 0.501144 64.9975 0.502556 65.1826 0.864541L67.2315 4.87049C67.309 5.02202 67.4583 5.12372 67.6276 5.1404L72.392 5.60962C72.8343 5.65318 73.0042 6.20913 72.6617 6.49247L69.2079 9.34971C69.0627 9.46979 68.9974 9.66125 69.0388 9.84502L69.9716 13.979C70.0641 14.389 69.6401 14.7233 69.263 14.5376L64.886 12.3823C64.7458 12.3132 64.5815 12.3137 64.4417 12.3835L60.1419 14.5306C59.7652 14.7187 59.3389 14.3855 59.4305 13.9745L60.3655 9.77909C60.4067 9.59414 60.3398 9.40177 60.1928 9.28228L56.7482 6.48355C56.4033 6.20335 56.568 5.64614 57.0097 5.59839L61.8584 5.07428C62.0249 5.05628 62.1714 4.95604 62.2485 4.80728L64.2936 0.862113Z" fill="#D12420"/>
<path fill-rule="evenodd" clip-rule="evenodd" d="M91.7613 0.862113C91.9485 0.501144 92.4653 0.502556 92.6504 0.864541L94.6993 4.87049C94.7768 5.02202 94.926 5.12372 95.0954 5.1404L99.8597 5.60962C100.302 5.65318 100.472 6.20913 100.129 6.49247L96.6756 9.34971C96.5305 9.46979 96.4651 9.66125 96.5066 9.84502L97.4394 13.979C97.5319 14.389 97.1079 14.7233 96.7308 14.5376L92.3537 12.3823C92.2136 12.3132 92.0493 12.3137 91.9095 12.3835L87.6097 14.5306C87.233 14.7187 86.8067 14.3855 86.8983 13.9745L87.8333 9.77909C87.8745 9.59414 87.8076 9.40177 87.6605 9.28228L84.216 6.48355C83.8711 6.20335 84.0357 5.64614 84.4775 5.59839L89.3261 5.07428C89.4927 5.05628 89.6392 4.95604 89.7163 4.80728L91.7613 0.862113Z" fill="#D12420"/>
<path fill-rule="evenodd" clip-rule="evenodd" d="M119.219 0.862113C119.406 0.501144 119.923 0.502556 120.108 0.864541L122.157 4.87049C122.235 5.02202 122.384 5.12372 122.553 5.1404L127.318 5.60962C127.76 5.65318 127.93 6.20913 127.587 6.49247L124.134 9.34971C123.988 9.46979 123.923 9.66125 123.965 9.84502L124.897 13.979C124.99 14.389 124.566 14.7233 124.189 14.5376L119.812 12.3823C119.672 12.3132 119.507 12.3137 119.367 12.3835L115.068 14.5306C114.691 14.7187 114.265 14.3855 114.356 13.9745L115.291 9.77909C115.333 9.59414 115.266 9.40177 115.119 9.28228L111.674 6.48355C111.329 6.20335 111.494 5.64614 111.936 5.59839L116.784 5.07428C116.951 5.05628 117.097 4.95604 117.174 4.80728L119.219 0.862113Z" fill="#D12420"/>
</svg>
