<svg width="129" height="15" viewBox="0 0 129 15" fill="none" xmlns="http://www.w3.org/2000/svg">
<path fill-rule="evenodd" clip-rule="evenodd" d="M9.14123 0.862113C9.32834 0.501144 9.84515 0.502556 10.0303 0.864541L12.0791 4.87049C12.1566 5.02202 12.3059 5.12372 12.4753 5.1404L17.2396 5.60962C17.682 5.65318 17.8518 6.20913 17.5093 6.49247L14.0555 9.34971C13.9104 9.46979 13.845 9.66125 13.8865 9.84502L14.8193 13.979C14.9118 14.389 14.4878 14.7233 14.1107 14.5376L9.73363 12.3823C9.59348 12.3132 9.42913 12.3137 9.28937 12.3835L4.98959 14.5306C4.6129 14.7187 4.1866 14.3855 4.27818 13.9745L5.21316 9.77909C5.25438 9.59414 5.1875 9.40177 5.04043 9.28228L1.59584 6.48355C1.25098 6.20335 1.41563 5.64614 1.8574 5.59839L6.70602 5.07428C6.8726 5.05628 7.01908 4.95604 7.09619 4.80728L9.14123 0.862113Z" fill="#D12420"/>
<path fill-rule="evenodd" clip-rule="evenodd" d="M36.6031 0.862113C36.7903 0.501144 37.3071 0.502556 37.4922 0.864541L39.5411 4.87049C39.6186 5.02202 39.7678 5.12372 39.9372 5.1404L44.7015 5.60962C45.1439 5.65318 45.3137 6.20913 44.9712 6.49247L41.5174 9.34971C41.3723 9.46979 41.3069 9.66125 41.3484 9.84502L42.2812 13.979C42.3737 14.389 41.9497 14.7233 41.5726 14.5376L37.1955 12.3823C37.0554 12.3132 36.891 12.3137 36.7513 12.3835L32.4515 14.5306C32.0748 14.7187 31.6485 14.3855 31.7401 13.9745L32.6751 9.77909C32.7163 9.59414 32.6494 9.40177 32.5023 9.28228L29.0578 6.48355C28.7129 6.20335 28.8775 5.64614 29.3193 5.59839L34.1679 5.07428C34.3345 5.05628 34.481 4.95604 34.5581 4.80728L36.6031 0.862113Z" fill="#D12420"/>
<path fill-rule="evenodd" clip-rule="evenodd" d="M64.0658 0.862113C64.2529 0.501144 64.7697 0.502556 64.9549 0.864541L67.0037 4.87049C67.0812 5.02202 67.2305 5.12372 67.3999 5.1404L72.1642 5.60962C72.6065 5.65318 72.7764 6.20913 72.4339 6.49247L68.9801 9.34971C68.8349 9.46979 68.7696 9.66125 68.811 9.84502L69.7438 13.979C69.8364 14.389 69.4123 14.7233 69.0352 14.5376L64.6582 12.3823C64.518 12.3132 64.3537 12.3137 64.2139 12.3835L59.9141 14.5306C59.5375 14.7187 59.1112 14.3855 59.2027 13.9745L60.1377 9.77909C60.1789 9.59414 60.1121 9.40177 59.965 9.28228L56.5204 6.48355C56.1755 6.20335 56.3402 5.64614 56.782 5.59839L61.6306 5.07428C61.7972 5.05628 61.9436 4.95604 62.0208 4.80728L64.0658 0.862113Z" fill="#D12420"/>
<path fill-rule="evenodd" clip-rule="evenodd" d="M91.5282 0.862113C91.7153 0.501144 92.2321 0.502556 92.4173 0.864541L94.4661 4.87049C94.5436 5.02202 94.6929 5.12372 94.8623 5.1404L99.6266 5.60962C100.069 5.65318 100.239 6.20913 99.8963 6.49247L96.4425 9.34971C96.2973 9.46979 96.232 9.66125 96.2734 9.84502L97.2062 13.979C97.2988 14.389 96.8747 14.7233 96.4976 14.5376L92.1206 12.3823C91.9804 12.3132 91.8161 12.3137 91.6763 12.3835L87.3766 14.5306C86.9999 14.7187 86.5736 14.3855 86.6651 13.9745L87.6001 9.77909C87.6413 9.59414 87.5745 9.40177 87.4274 9.28228L83.9828 6.48355C83.6379 6.20335 83.8026 5.64614 84.2444 5.59839L89.093 5.07428C89.2596 5.05628 89.406 4.95604 89.4832 4.80728L91.5282 0.862113Z" fill="#D12420"/>
<path fill-rule="evenodd" clip-rule="evenodd" d="M118.991 0.862113C119.178 0.501144 119.695 0.502556 119.88 0.864541L121.929 4.87049C122.006 5.02202 122.155 5.12372 122.325 5.1404L127.089 5.60962C127.531 5.65318 127.701 6.20913 127.359 6.49247L123.905 9.34971C123.76 9.46979 123.694 9.66125 123.736 9.84502L124.669 13.979C124.761 14.389 124.337 14.7233 123.96 14.5376L119.583 12.3823C119.443 12.3132 119.278 12.3137 119.139 12.3835L114.839 14.5306C114.462 14.7187 114.036 14.3855 114.128 13.9745L115.063 9.77909C115.104 9.59414 115.037 9.40177 114.89 9.28228L111.445 6.48355C111.1 6.20335 111.265 5.64614 111.707 5.59839L116.555 5.07428C116.722 5.05628 116.868 4.95604 116.946 4.80728L118.991 0.862113Z" fill="#F2C2C1"/>
</svg>
