<svg width="17" height="15" viewBox="0 0 17 15" fill="none" xmlns="http://www.w3.org/2000/svg">
<path fill-rule="evenodd" clip-rule="evenodd" d="M8.30041 0.862113C8.48752 0.501144 9.00433 0.502556 9.18947 0.864541L11.2383 4.87049C11.3158 5.02202 11.4651 5.12372 11.6345 5.1404L16.3988 5.60962C16.8412 5.65318 17.011 6.20913 16.6685 6.49247L13.2147 9.34971C13.0695 9.46979 13.0042 9.66125 13.0457 9.84502L13.9785 13.979C14.071 14.389 13.647 14.7233 13.2698 14.5376L8.89281 12.3823C8.75266 12.3132 8.58831 12.3137 8.44855 12.3835L4.14877 14.5306C3.77208 14.7187 3.34578 14.3855 3.43736 13.9745L4.37234 9.77909C4.41356 9.59414 4.34668 9.40177 4.19961 9.28228L0.755018 6.48355C0.410155 6.20335 0.574809 5.64614 1.01658 5.59839L5.8652 5.07428C6.03178 5.05628 6.17826 4.95604 6.25537 4.80728L8.30041 0.862113Z" fill="#D12420"/>
</svg>
