<svg width="17" height="15" viewBox="0 0 17 15" fill="none" xmlns="http://www.w3.org/2000/svg">
<path fill-rule="evenodd" clip-rule="evenodd" d="M8.21838 0.862113C8.40549 0.501144 8.9223 0.502556 9.10744 0.864541L11.1563 4.87049C11.2338 5.02202 11.3831 5.12372 11.5524 5.1404L16.3168 5.60962C16.7591 5.65318 16.929 6.20913 16.5865 6.49247L13.1327 9.34971C12.9875 9.46979 12.9222 9.66125 12.9636 9.84502L13.8964 13.979C13.9889 14.389 13.5649 14.7233 13.1878 14.5376L8.81078 12.3823C8.67063 12.3132 8.50628 12.3137 8.36652 12.3835L4.06674 14.5306C3.69005 14.7187 3.26375 14.3855 3.35533 13.9745L4.29031 9.77909C4.33153 9.59414 4.26465 9.40177 4.11758 9.28228L0.672987 6.48355C0.328124 6.20335 0.492778 5.64614 0.934551 5.59839L5.78317 5.07428C5.94975 5.05628 6.09623 4.95604 6.17334 4.80728L8.21838 0.862113Z" fill="#D12420"/>
</svg>
