<svg width="17" height="15" viewBox="0 0 17 15" fill="none" xmlns="http://www.w3.org/2000/svg">
<path fill-rule="evenodd" clip-rule="evenodd" d="M7.75939 0.862113C7.94651 0.501144 8.46332 0.502556 8.64845 0.864541L10.6973 4.87049C10.7748 5.02202 10.9241 5.12372 11.0935 5.1404L15.8578 5.60962C16.3001 5.65318 16.47 6.20913 16.1275 6.49247L12.6737 9.34971C12.5285 9.46979 12.4632 9.66125 12.5046 9.84502L13.4374 13.979C13.53 14.389 13.1059 14.7233 12.7288 14.5376L8.3518 12.3823C8.21165 12.3132 8.0473 12.3137 7.90753 12.3835L3.60775 14.5306C3.23107 14.7187 2.80476 14.3855 2.89635 13.9745L3.83133 9.77909C3.87254 9.59414 3.80566 9.40177 3.65859 9.28228L0.214003 6.48355C-0.13086 6.20335 0.0337937 5.64614 0.475566 5.59839L5.32418 5.07428C5.49076 5.05628 5.63725 4.95604 5.71436 4.80728L7.75939 0.862113Z" fill="#D12420"/>
</svg>
