<svg width="17" height="15" viewBox="0 0 17 15" fill="none" xmlns="http://www.w3.org/2000/svg">
<path fill-rule="evenodd" clip-rule="evenodd" d="M8.14269 0.862113C8.32981 0.501144 8.84662 0.502556 9.03176 0.864541L11.0806 4.87049C11.1581 5.02202 11.3074 5.12372 11.4768 5.1404L16.2411 5.60962C16.6834 5.65318 16.8533 6.20913 16.5108 6.49247L13.057 9.34971C12.9118 9.46979 12.8465 9.66125 12.8879 9.84502L13.8207 13.979C13.9133 14.389 13.4892 14.7233 13.1121 14.5376L8.7351 12.3823C8.59495 12.3132 8.4306 12.3137 8.29084 12.3835L3.99105 14.5306C3.61437 14.7187 3.18806 14.3855 3.27965 13.9745L4.21463 9.77909C4.25585 9.59414 4.18896 9.40177 4.0419 9.28228L0.597304 6.48355C0.25244 6.20335 0.417094 5.64614 0.858867 5.59839L5.70748 5.07428C5.87406 5.05628 6.02055 4.95604 6.09766 4.80728L8.14269 0.862113Z" fill="#F2C2C1"/>
</svg>
