<svg width="18" height="15" viewBox="0 0 18 15" fill="none" xmlns="http://www.w3.org/2000/svg">
<path fill-rule="evenodd" clip-rule="evenodd" d="M8.68322 0.862113C8.87033 0.501144 9.38714 0.502556 9.57228 0.864541L11.6211 4.87049C11.6986 5.02202 11.8479 5.12372 12.0173 5.1404L16.7816 5.60962C17.224 5.65318 17.3938 6.20913 17.0513 6.49247L13.5975 9.34971C13.4523 9.46979 13.387 9.66125 13.4285 9.84502L14.3613 13.979C14.4538 14.389 14.0298 14.7233 13.6526 14.5376L9.27562 12.3823C9.13548 12.3132 8.97113 12.3137 8.83136 12.3835L4.53158 14.5306C4.1549 14.7187 3.72859 14.3855 3.82018 13.9745L4.75515 9.77909C4.79637 9.59414 4.72949 9.40177 4.58242 9.28228L1.13783 6.48355C0.792968 6.20335 0.957622 5.64614 1.39939 5.59839L6.24801 5.07428C6.41459 5.05628 6.56108 4.95604 6.63818 4.80728L8.68322 0.862113Z" fill="#D12420"/>
</svg>
