<svg width="24" height="8" viewBox="0 0 24 8" fill="none" xmlns="http://www.w3.org/2000/svg">
<path d="M1.33838 3.5C1.06224 3.5 0.838379 3.72386 0.838379 4C0.838379 4.27614 1.06224 4.5 1.33838 4.5V3.5ZM23.6919 4.35355C23.8872 4.15829 23.8872 3.84171 23.6919 3.64645L20.51 0.464466C20.3147 0.269204 19.9981 0.269204 19.8028 0.464466C19.6076 0.659728 19.6076 0.976311 19.8028 1.17157L22.6313 4L19.8028 6.82843C19.6076 7.02369 19.6076 7.34027 19.8028 7.53553C19.9981 7.7308 20.3147 7.7308 20.51 7.53553L23.6919 4.35355ZM1.33838 4.5H23.3384V3.5H1.33838V4.5Z" fill="black"/>
</svg>
